%TF.GenerationSoftware,KiCad,Pcbnew,4.0.6*%
%TF.CreationDate,2017-07-18T22:34:41+03:00*%
%TF.ProjectId,esp12_1button_6leds,65737031325F31627574746F6E5F366C,rev?*%
%TF.FileFunction,Legend,Top*%
%FSLAX46Y46*%
G04 Gerber Fmt 4.6, Leading zero omitted, Abs format (unit mm)*
G04 Created by KiCad (PCBNEW 4.0.6) date 07/18/17 22:34:41*
%MOMM*%
%LPD*%
G01*
G04 APERTURE LIST*
%ADD10C,0.100000*%
%ADD11C,0.150000*%
%ADD12C,0.120000*%
G04 APERTURE END LIST*
D10*
D11*
X-16298900Y-7603600D02*
X-16298900Y-6603600D01*
X-15298900Y-7603600D02*
X-16298900Y-7603600D01*
X-15298900Y-6603600D02*
X-15298900Y-7603600D01*
X-16298900Y-6603600D02*
X-15298900Y-6603600D01*
D12*
X-13220000Y-20550000D02*
X-13220000Y-21550000D01*
X-14580000Y-21550000D02*
X-14580000Y-20550000D01*
X-12880000Y-21550000D02*
X-12880000Y-20550000D01*
X-11520000Y-20550000D02*
X-11520000Y-21550000D01*
X-11180000Y-21550000D02*
X-11180000Y-20550000D01*
X-9820000Y-20550000D02*
X-9820000Y-21550000D01*
X-9480000Y-21550000D02*
X-9480000Y-20550000D01*
X-8120000Y-20550000D02*
X-8120000Y-21550000D01*
X-7780000Y-21550000D02*
X-7780000Y-20550000D01*
X-6420000Y-20550000D02*
X-6420000Y-21550000D01*
X-6080000Y-21550000D02*
X-6080000Y-20550000D01*
X-4720000Y-20550000D02*
X-4720000Y-21550000D01*
X-4380000Y-21550000D02*
X-4380000Y-20550000D01*
X-3020000Y-20550000D02*
X-3020000Y-21550000D01*
X-9748900Y-72200D02*
X-9748900Y577800D01*
X-9748900Y577800D02*
X-7848900Y577800D01*
X-7848900Y577800D02*
X-7848900Y-72200D01*
X-7048900Y-3172200D02*
X-10548900Y-3172200D01*
X-10548900Y-72200D02*
X-7048900Y-72200D01*
M02*
