%TF.GenerationSoftware,KiCad,Pcbnew,4.0.6*%
%TF.CreationDate,2017-07-18T22:34:41+03:00*%
%TF.ProjectId,esp12_1button_6leds,65737031325F31627574746F6E5F366C,rev?*%
%TF.FileFunction,Copper,L2,Bot,Signal*%
%FSLAX46Y46*%
G04 Gerber Fmt 4.6, Leading zero omitted, Abs format (unit mm)*
G04 Created by KiCad (PCBNEW 4.0.6) date 07/18/17 22:34:41*
%MOMM*%
%LPD*%
G01*
G04 APERTURE LIST*
%ADD10C,0.100000*%
%ADD11R,1.000000X1.000000*%
%ADD12R,0.900000X0.800000*%
%ADD13C,0.600000*%
%ADD14C,0.250000*%
G04 APERTURE END LIST*
D10*
D11*
X-16798900Y-8603600D03*
X-16798900Y-10603600D03*
X-15798900Y-10603600D03*
X-16798900Y-12603600D03*
X-16798900Y-14603600D03*
X-16798900Y-16603600D03*
X-16798900Y-18603600D03*
X-16798900Y-20603600D03*
X-16798900Y-22603600D03*
X-15798900Y-12603600D03*
X-15798900Y-14603600D03*
X-15798900Y-16603600D03*
X-15798900Y-18603600D03*
X-15798900Y-20603600D03*
X-15798900Y-22603600D03*
X-15798900Y-8603600D03*
X-13798900Y-24103600D03*
X-11798900Y-24103600D03*
X-9798900Y-24103600D03*
X-7798900Y-24103600D03*
X-5798900Y-24103600D03*
X-3798900Y-24103600D03*
X-798900Y-22603600D03*
X-798900Y-20603600D03*
X-798900Y-18603600D03*
X-798900Y-16603600D03*
X-798900Y-14603600D03*
X-798900Y-12603600D03*
X-798900Y-10603600D03*
X-798900Y-8603600D03*
X-1798900Y-22603600D03*
X-1798900Y-20603600D03*
X-1798900Y-18603600D03*
X-1798900Y-16603600D03*
X-1798900Y-14603600D03*
X-1798900Y-12603600D03*
X-1798900Y-10603600D03*
X-1798900Y-8603600D03*
D12*
X-15300000Y-1050000D03*
X-15300000Y-3150000D03*
X-12800000Y-1050000D03*
X-12800000Y-3150000D03*
X-10300000Y-1000000D03*
X-10300000Y-3100000D03*
X-7050000Y-1000000D03*
X-7050000Y-3100000D03*
X-4550000Y-1000000D03*
X-4550000Y-3100000D03*
X-2050000Y-1000000D03*
X-2050000Y-3100000D03*
D13*
X-15300000Y-2100000D03*
X-12800000Y-2100000D03*
X-10800000Y-4600000D03*
X-6550000Y-4600000D03*
X-4550000Y-2100000D03*
X-2050000Y-2100000D03*
X-3000000Y-18400000D03*
D14*
X-15300000Y-1050000D02*
X-15300000Y-2100000D01*
X-13798900Y-24103600D02*
X-13798900Y-4601100D01*
X-13798900Y-4601100D02*
X-15250000Y-3150000D01*
X-15250000Y-3150000D02*
X-15300000Y-3150000D01*
X-12800000Y-1050000D02*
X-12800000Y-2100000D01*
X-11798900Y-24103600D02*
X-11798900Y-4101100D01*
X-11798900Y-4101100D02*
X-12750000Y-3150000D01*
X-12750000Y-3150000D02*
X-12800000Y-3150000D01*
X-11300000Y-1300000D02*
X-11300000Y-4100000D01*
X-11300000Y-4100000D02*
X-10800000Y-4600000D01*
X-10300000Y-1000000D02*
X-11000000Y-1000000D01*
X-11000000Y-1000000D02*
X-11300000Y-1300000D01*
X-9798900Y-24103600D02*
X-9798900Y-3601100D01*
X-9798900Y-3601100D02*
X-10300000Y-3100000D01*
X-6050000Y-3850000D02*
X-6550000Y-4350000D01*
X-6550000Y-4350000D02*
X-6550000Y-4600000D01*
X-6050000Y-3600000D02*
X-6050000Y-3850000D01*
X-6050000Y-1300000D02*
X-6050000Y-3600000D01*
X-7050000Y-1000000D02*
X-6350000Y-1000000D01*
X-6350000Y-1000000D02*
X-6050000Y-1300000D01*
X-7798900Y-24103600D02*
X-7798900Y-3798900D01*
X-7798900Y-3798900D02*
X-7100000Y-3100000D01*
X-7100000Y-3100000D02*
X-7050000Y-3100000D01*
X-4550000Y-1000000D02*
X-4550000Y-2100000D01*
X-5798900Y-24103600D02*
X-5798900Y-4298900D01*
X-5798900Y-4298900D02*
X-4600000Y-3100000D01*
X-4600000Y-3100000D02*
X-4550000Y-3100000D01*
X-2050000Y-1000000D02*
X-2050000Y-2100000D01*
X-3798900Y-24103600D02*
X-3798900Y-4798900D01*
X-3798900Y-4798900D02*
X-2100000Y-3100000D01*
X-2100000Y-3100000D02*
X-2050000Y-3100000D01*
X-3000000Y-18400000D02*
X-3000000Y-22152500D01*
X-3000000Y-22152500D02*
X-2548900Y-22603600D01*
X-2548900Y-22603600D02*
X-1798900Y-22603600D01*
M02*
