%TF.GenerationSoftware,KiCad,Pcbnew,4.0.6*%
%TF.CreationDate,2017-07-18T22:34:41+03:00*%
%TF.ProjectId,esp12_1button_6leds,65737031325F31627574746F6E5F366C,rev?*%
%TF.FileFunction,Copper,L1,Top,Signal*%
%FSLAX46Y46*%
G04 Gerber Fmt 4.6, Leading zero omitted, Abs format (unit mm)*
G04 Created by KiCad (PCBNEW 4.0.6) date 07/18/17 22:34:41*
%MOMM*%
%LPD*%
G01*
G04 APERTURE LIST*
%ADD10C,0.100000*%
%ADD11R,1.000000X1.000000*%
%ADD12R,0.900000X1.200000*%
%ADD13R,1.400000X1.050000*%
%ADD14C,0.600000*%
%ADD15C,0.250000*%
G04 APERTURE END LIST*
D10*
D11*
X-16798900Y-8603600D03*
X-16798900Y-10603600D03*
X-15798900Y-10603600D03*
X-16798900Y-12603600D03*
X-16798900Y-14603600D03*
X-16798900Y-16603600D03*
X-16798900Y-18603600D03*
X-16798900Y-20603600D03*
X-16798900Y-22603600D03*
X-15798900Y-12603600D03*
X-15798900Y-14603600D03*
X-15798900Y-16603600D03*
X-15798900Y-18603600D03*
X-15798900Y-20603600D03*
X-15798900Y-22603600D03*
X-15798900Y-8603600D03*
X-13798900Y-24103600D03*
X-11798900Y-24103600D03*
X-9798900Y-24103600D03*
X-7798900Y-24103600D03*
X-5798900Y-24103600D03*
X-3798900Y-24103600D03*
X-798900Y-22603600D03*
X-798900Y-20603600D03*
X-798900Y-18603600D03*
X-798900Y-16603600D03*
X-798900Y-14603600D03*
X-798900Y-12603600D03*
X-798900Y-10603600D03*
X-798900Y-8603600D03*
X-1798900Y-22603600D03*
X-1798900Y-20603600D03*
X-1798900Y-18603600D03*
X-1798900Y-16603600D03*
X-1798900Y-14603600D03*
X-1798900Y-12603600D03*
X-1798900Y-10603600D03*
X-1798900Y-8603600D03*
D12*
X-13900000Y-22150000D03*
X-13900000Y-19950000D03*
X-12200000Y-19950000D03*
X-12200000Y-22150000D03*
X-10500000Y-19950000D03*
X-10500000Y-22150000D03*
X-8800000Y-19950000D03*
X-8800000Y-22150000D03*
X-7100000Y-19950000D03*
X-7100000Y-22150000D03*
X-5400000Y-19950000D03*
X-5400000Y-22150000D03*
X-3700000Y-19950000D03*
X-3700000Y-22150000D03*
D13*
X-10598900Y-2342200D03*
X-6998900Y-2342200D03*
X-10598900Y-902200D03*
X-6998900Y-902200D03*
D14*
X-15300000Y-2100000D03*
X-12800000Y-2100000D03*
X-10800000Y-4600000D03*
X-6550000Y-4600000D03*
X-4550000Y-2100000D03*
X-2050000Y-2100000D03*
X-3000000Y-18400000D03*
D15*
X-12200000Y-7100000D02*
X-12200000Y-19100000D01*
X-15300000Y-2100000D02*
X-15300000Y-4000000D01*
X-15300000Y-4000000D02*
X-12200000Y-7100000D01*
X-12200000Y-19100000D02*
X-12200000Y-19950000D01*
X-10500000Y-7400000D02*
X-12800000Y-5100000D01*
X-12800000Y-5100000D02*
X-12800000Y-2100000D01*
X-10500000Y-19950000D02*
X-10500000Y-7400000D01*
X-8800000Y-19950000D02*
X-8800000Y-6600000D01*
X-8800000Y-6600000D02*
X-10800000Y-4600000D01*
X-7100000Y-19950000D02*
X-7100000Y-5150000D01*
X-7100000Y-5150000D02*
X-6550000Y-4600000D01*
X-4550000Y-2100000D02*
X-4550000Y-4050000D01*
X-4550000Y-4050000D02*
X-5400000Y-4900000D01*
X-5400000Y-4900000D02*
X-5400000Y-19950000D01*
X-3700000Y-19950000D02*
X-3700000Y-5700000D01*
X-3700000Y-5700000D02*
X-2050000Y-4050000D01*
X-2050000Y-4050000D02*
X-2050000Y-2100000D01*
X-14550000Y-22104700D02*
X-13945300Y-22104700D01*
X-13945300Y-22104700D02*
X-13900000Y-22150000D01*
X-15798900Y-22603600D02*
X-15048900Y-22603600D01*
X-15048900Y-22603600D02*
X-14550000Y-22104700D01*
X-13900000Y-7300000D02*
X-13900000Y-12600000D01*
X-16100000Y-1500000D02*
X-16100000Y-5100000D01*
X-16100000Y-5100000D02*
X-13900000Y-7300000D01*
X-15502200Y-902200D02*
X-16100000Y-1500000D01*
X-10598900Y-902200D02*
X-15502200Y-902200D01*
X-7692199Y-1492199D02*
X-8092199Y-1492199D01*
X-8092199Y-1492199D02*
X-8300000Y-1700000D01*
X-6998900Y-902200D02*
X-7102200Y-902200D01*
X-7102200Y-902200D02*
X-7692199Y-1492199D01*
X-9300000Y-1700000D02*
X-8300000Y-1700000D01*
X-9507801Y-1492199D02*
X-9300000Y-1700000D01*
X-10008901Y-1492199D02*
X-9507801Y-1492199D01*
X-10598900Y-902200D02*
X-10008901Y-1492199D01*
X-13900000Y-12600000D02*
X-13900000Y-19100000D01*
X-16798900Y-12603600D02*
X-13903600Y-12603600D01*
X-13903600Y-12603600D02*
X-13900000Y-12600000D01*
X-13900000Y-19100000D02*
X-13900000Y-19950000D01*
X-3000000Y-7600000D02*
X-3000000Y-18400000D01*
X-1400000Y-6000000D02*
X-3000000Y-7600000D01*
X-1400000Y-1500000D02*
X-1400000Y-6000000D01*
X-2100000Y-800000D02*
X-1400000Y-1500000D01*
X-4506700Y-800000D02*
X-2100000Y-800000D01*
X-6998900Y-2342200D02*
X-6048900Y-2342200D01*
X-6048900Y-2342200D02*
X-4506700Y-800000D01*
X-8100000Y-3500000D02*
X-9266100Y-3500000D01*
X-6998900Y-2398900D02*
X-8100000Y-3500000D01*
X-6998900Y-2342200D02*
X-6998900Y-2398900D01*
X-10598900Y-2342200D02*
X-10423900Y-2342200D01*
X-10423900Y-2342200D02*
X-9266100Y-3500000D01*
X-2900000Y-22252500D02*
X-2900000Y-22250000D01*
X-2900000Y-22250000D02*
X-3000000Y-22150000D01*
X-3000000Y-22150000D02*
X-3700000Y-22150000D01*
X-1798900Y-22603600D02*
X-2548900Y-22603600D01*
X-2548900Y-22603600D02*
X-2900000Y-22252500D01*
X-3700000Y-22150000D02*
X-5400000Y-22150000D01*
X-7100000Y-22150000D02*
X-5400000Y-22150000D01*
X-8800000Y-22150000D02*
X-7100000Y-22150000D01*
X-10500000Y-22150000D02*
X-8800000Y-22150000D01*
X-12200000Y-22150000D02*
X-10500000Y-22150000D01*
M02*
