M48
;DRILL file {KiCad 4.0.6} date 07/18/17 22:34:49
;FORMAT={-:-/ absolute / metric / decimal}
FMAT,2
METRIC,TZ
T1C0.400
T2C0.600
T3C0.700
%
G90
G05
M71
T1
X-15.3Y-2.1
X-12.8Y-2.1
X-10.8Y-4.6
X-6.55Y-4.6
X-4.55Y-2.1
X-3.Y-18.4
X-2.05Y-2.1
T2
X-16.799Y-8.604
X-16.799Y-10.604
X-16.799Y-12.604
X-16.799Y-14.604
X-16.799Y-16.604
X-16.799Y-18.604
X-16.799Y-20.604
X-16.799Y-22.604
X-15.799Y-8.604
X-15.799Y-10.604
X-15.799Y-12.604
X-15.799Y-14.604
X-15.799Y-16.604
X-15.799Y-18.604
X-15.799Y-20.604
X-15.799Y-22.604
X-13.799Y-24.104
X-11.799Y-24.104
X-9.799Y-24.104
X-7.799Y-24.104
X-5.799Y-24.104
X-3.799Y-24.104
X-1.799Y-8.604
X-1.799Y-10.604
X-1.799Y-12.604
X-1.799Y-14.604
X-1.799Y-16.604
X-1.799Y-18.604
X-1.799Y-20.604
X-1.799Y-22.604
X-0.799Y-8.604
X-0.799Y-10.604
X-0.799Y-12.604
X-0.799Y-14.604
X-0.799Y-16.604
X-0.799Y-18.604
X-0.799Y-20.604
X-0.799Y-22.604
T3
X-8.799Y-0.722
X-8.799Y-2.522
T0
M30
