M48
;DRILL file {KiCad 4.0.6} date 07/19/17 01:35:53
;FORMAT={-:-/ absolute / metric / decimal}
FMAT,2
METRIC,TZ
T1C0.400
T2C0.600
%
G90
G05
M71
T1
X-15.4Y-18.6
X-15.Y-10.5
X-15.Y-12.5
X-13.808Y-19.138
X-13.5Y-11.
X-13.5Y-13.
X-13.453Y-22.206
X-13.434Y-14.934
X-13.346Y-22.999
X-12.751Y-23.534
X-12.5Y-12.
X-12.5Y-14.
X-12.Y-23.5
X-11.5Y-13.
X-11.146Y-15.929
X-10.7Y-23.1
X-10.5Y-12.
X-10.332Y-14.652
X-10.244Y-15.948
X-9.588Y-19.037
X-9.588Y-20.762
X-9.446Y-10.946
X-9.4Y-16.2
X-8.4Y-10.
X-8.1Y-13.5
X-8.Y-22.7
X-7.678Y-14.794
X-7.201Y-21.494
X-7.091Y-19.669
X-7.Y-8.9
X-5.8Y-19.95
X-5.6Y-8.8
X-5.Y-10.5
X-5.Y-12.5
X-5.Y-14.5
X-5.Y-16.5
X-4.2Y-8.8
X-4.Y-10.5
X-4.Y-12.5
X-4.Y-14.5
X-4.Y-16.5
T2
X-17.499Y-9.504
X-17.499Y-11.504
X-17.499Y-13.504
X-17.499Y-15.504
X-17.499Y-17.504
X-17.499Y-19.504
X-17.499Y-21.504
X-17.499Y-23.504
X-16.499Y-9.504
X-16.499Y-11.504
X-16.499Y-13.504
X-16.499Y-15.504
X-16.499Y-17.504
X-16.499Y-19.504
X-16.499Y-21.504
X-16.499Y-23.504
X-14.499Y-25.004
X-12.499Y-25.004
X-10.499Y-25.004
X-8.499Y-25.004
X-6.499Y-25.004
X-4.499Y-25.004
X-2.499Y-9.504
X-2.499Y-11.504
X-2.499Y-13.504
X-2.499Y-15.504
X-2.499Y-17.504
X-2.499Y-19.504
X-2.499Y-21.504
X-2.499Y-23.504
X-1.499Y-9.504
X-1.499Y-11.504
X-1.499Y-13.504
X-1.499Y-15.504
X-1.499Y-17.504
X-1.499Y-19.504
X-1.499Y-21.504
X-1.499Y-23.504
T0
M30
