%TF.GenerationSoftware,KiCad,Pcbnew,4.0.6*%
%TF.CreationDate,2017-07-19T01:35:51+03:00*%
%TF.ProjectId,esp12_atmega_addon,65737031325F61746D6567615F616464,rev?*%
%TF.FileFunction,Copper,L1,Top,Signal*%
%FSLAX46Y46*%
G04 Gerber Fmt 4.6, Leading zero omitted, Abs format (unit mm)*
G04 Created by KiCad (PCBNEW 4.0.6) date 07/19/17 01:35:51*
%MOMM*%
%LPD*%
G01*
G04 APERTURE LIST*
%ADD10C,0.100000*%
%ADD11R,1.000000X1.000000*%
%ADD12R,0.750000X0.800000*%
%ADD13R,0.700000X0.250000*%
%ADD14R,0.250000X0.700000*%
%ADD15R,1.725000X1.725000*%
%ADD16R,0.900000X0.500000*%
%ADD17R,0.500000X0.900000*%
%ADD18C,0.600000*%
%ADD19C,0.250000*%
%ADD20C,0.200000*%
G04 APERTURE END LIST*
D10*
D11*
X-17498900Y-9503600D03*
X-17498900Y-11503600D03*
X-16498900Y-11503600D03*
X-17498900Y-13503600D03*
X-17498900Y-15503600D03*
X-17498900Y-17503600D03*
X-17498900Y-19503600D03*
X-17498900Y-21503600D03*
X-17498900Y-23503600D03*
X-16498900Y-13503600D03*
X-16498900Y-15503600D03*
X-16498900Y-17503600D03*
X-16498900Y-19503600D03*
X-16498900Y-21503600D03*
X-16498900Y-23503600D03*
X-16498900Y-9503600D03*
X-14498900Y-25003600D03*
X-12498900Y-25003600D03*
X-10498900Y-25003600D03*
X-8498900Y-25003600D03*
X-6498900Y-25003600D03*
X-4498900Y-25003600D03*
X-1498900Y-23503600D03*
X-1498900Y-21503600D03*
X-1498900Y-19503600D03*
X-1498900Y-17503600D03*
X-1498900Y-15503600D03*
X-1498900Y-13503600D03*
X-1498900Y-11503600D03*
X-1498900Y-9503600D03*
X-2498900Y-23503600D03*
X-2498900Y-21503600D03*
X-2498900Y-19503600D03*
X-2498900Y-17503600D03*
X-2498900Y-15503600D03*
X-2498900Y-13503600D03*
X-2498900Y-11503600D03*
X-2498900Y-9503600D03*
D12*
X-14400000Y-20050000D03*
X-14400000Y-18550000D03*
X-6500000Y-21450000D03*
X-6500000Y-19950000D03*
X-5200000Y-20950000D03*
X-5200000Y-19450000D03*
D13*
X-12850000Y-18150000D03*
X-12850000Y-18650000D03*
X-12850000Y-19150000D03*
X-12850000Y-19650000D03*
X-12850000Y-20150000D03*
X-12850000Y-20650000D03*
X-12850000Y-21150000D03*
X-12850000Y-21650000D03*
D14*
X-12200000Y-22300000D03*
X-11700000Y-22300000D03*
X-11200000Y-22300000D03*
X-10700000Y-22300000D03*
X-10200000Y-22300000D03*
X-9700000Y-22300000D03*
X-9200000Y-22300000D03*
X-8700000Y-22300000D03*
D13*
X-8050000Y-21650000D03*
X-8050000Y-21150000D03*
X-8050000Y-20650000D03*
X-8050000Y-20150000D03*
X-8050000Y-19650000D03*
X-8050000Y-19150000D03*
X-8050000Y-18650000D03*
X-8050000Y-18150000D03*
D14*
X-8700000Y-17500000D03*
X-9200000Y-17500000D03*
X-9700000Y-17500000D03*
X-10200000Y-17500000D03*
X-10700000Y-17500000D03*
X-11200000Y-17500000D03*
X-11700000Y-17500000D03*
X-12200000Y-17500000D03*
D15*
X-9587500Y-20762500D03*
X-9587500Y-19037500D03*
X-11312500Y-20762500D03*
X-11312500Y-19037500D03*
D16*
X-14400000Y-21900000D03*
X-14400000Y-23400000D03*
D17*
X-3600000Y-22200000D03*
X-5100000Y-22200000D03*
D18*
X-13453165Y-22206172D03*
X-12751167Y-23533780D03*
X-7200972Y-21493811D03*
X-4200000Y-8800000D03*
X-5600000Y-8800000D03*
X-7000000Y-8900000D03*
X-8400000Y-10000000D03*
X-10500000Y-12000000D03*
X-4000000Y-10500000D03*
X-5000000Y-10500000D03*
X-5000000Y-12500000D03*
X-4000000Y-12500000D03*
X-4000000Y-14500000D03*
X-5000000Y-14500000D03*
X-5000000Y-16500000D03*
X-4000000Y-16500000D03*
X-9445557Y-10945557D03*
X-12500000Y-14000000D03*
X-13500000Y-13000000D03*
X-15000000Y-12500000D03*
X-15000000Y-10500000D03*
X-13500000Y-11000000D03*
X-12500000Y-12000000D03*
X-11500000Y-13000000D03*
X-15400000Y-18600000D03*
X-9587500Y-20762500D03*
X-9587500Y-19037500D03*
X-13434308Y-14934308D03*
X-13808414Y-19137980D03*
X-7091238Y-19668735D03*
X-5800000Y-19950000D03*
X-13346140Y-22998982D03*
X-11145558Y-15929442D03*
X-10331795Y-14652089D03*
X-8000000Y-22700000D03*
X-7678152Y-14794268D03*
X-9400000Y-16200000D03*
X-8100000Y-13500000D03*
X-10244039Y-15947537D03*
X-10700000Y-23100000D03*
X-12000000Y-23500000D03*
D19*
X-14996400Y-15503600D02*
X-12850000Y-17650000D01*
X-12850000Y-17650000D02*
X-12850000Y-18150000D01*
X-16498900Y-15503600D02*
X-14996400Y-15503600D01*
X-16498900Y-17503600D02*
X-13996400Y-17503600D01*
X-13996400Y-17503600D02*
X-13525001Y-17974999D01*
X-13525001Y-17974999D02*
X-13525001Y-18535001D01*
X-13525001Y-18535001D02*
X-13410002Y-18650000D01*
X-13410002Y-18650000D02*
X-13300000Y-18650000D01*
X-13300000Y-18650000D02*
X-12850000Y-18650000D01*
X-13072070Y-22248898D02*
X-12700000Y-22248898D01*
X-13453165Y-22206172D02*
X-13028901Y-22206172D01*
X-13028901Y-22206172D02*
X-12986175Y-22248898D01*
X-12700000Y-22248898D02*
X-12251102Y-22248898D01*
X-12986175Y-22248898D02*
X-12700000Y-22248898D01*
X-12251102Y-22248898D02*
X-12200000Y-22300000D01*
X-12751167Y-23533780D02*
X-12751167Y-23226168D01*
X-12500000Y-22975001D02*
X-11925753Y-22975001D01*
X-11700000Y-22749248D02*
X-11700000Y-22300000D01*
X-12751167Y-23226168D02*
X-12500000Y-22975001D01*
X-11925753Y-22975001D02*
X-11700000Y-22749248D01*
X-13525001Y-19725001D02*
X-13525001Y-19900000D01*
X-13525001Y-19900000D02*
X-13525001Y-20200000D01*
X-14400000Y-20050000D02*
X-13675001Y-20050000D01*
X-13675001Y-20050000D02*
X-13525001Y-19900000D01*
X-14400000Y-21900000D02*
X-14400000Y-20050000D01*
X-15300000Y-23054700D02*
X-15300000Y-22600000D01*
X-15300000Y-22600000D02*
X-14600000Y-21900000D01*
X-14600000Y-21900000D02*
X-14400000Y-21900000D01*
X-16498900Y-23503600D02*
X-15748900Y-23503600D01*
X-15748900Y-23503600D02*
X-15300000Y-23054700D01*
X-8050000Y-21150000D02*
X-7200000Y-21150000D01*
X-7200000Y-21150000D02*
X-6800000Y-21150000D01*
X-7200972Y-21493811D02*
X-7200972Y-21150972D01*
X-7200972Y-21150972D02*
X-7200000Y-21150000D01*
X-6800000Y-21150000D02*
X-6500000Y-21450000D01*
X-13525001Y-20200000D02*
X-13525001Y-20574999D01*
X-12850000Y-19650000D02*
X-13450000Y-19650000D01*
X-13450000Y-19650000D02*
X-13525001Y-19725001D01*
X-13525001Y-20574999D02*
X-13450000Y-20650000D01*
X-13450000Y-20650000D02*
X-12850000Y-20650000D01*
X-5600000Y-8800000D02*
X-4200000Y-8800000D01*
X-8400000Y-10000000D02*
X-8200000Y-10000000D01*
X-8200000Y-10000000D02*
X-7000000Y-8800000D01*
X-11500000Y-13000000D02*
X-10500000Y-12000000D01*
X-4000000Y-12500000D02*
X-5000000Y-12500000D01*
X-5000000Y-14500000D02*
X-4000000Y-14500000D01*
X-4000000Y-16500000D02*
X-5000000Y-16500000D01*
X-9445557Y-10945557D02*
X-11500000Y-13000000D01*
X-13434308Y-14934308D02*
X-12500000Y-14000000D01*
X-12500000Y-14000000D02*
X-11500000Y-13000000D01*
X-13500000Y-13000000D02*
X-12500000Y-14000000D01*
X-15000000Y-10500000D02*
X-15000000Y-12500000D01*
X-12500000Y-12000000D02*
X-13500000Y-11000000D01*
X-14400000Y-18550000D02*
X-15350000Y-18550000D01*
X-15350000Y-18550000D02*
X-15400000Y-18600000D01*
X-5800000Y-19950000D02*
X-5800000Y-19525736D01*
X-5800000Y-19525736D02*
X-6000000Y-19325736D01*
X-12850000Y-19150000D02*
X-13808414Y-19137980D01*
X-14400000Y-18550000D02*
X-14396394Y-18550000D01*
X-14396394Y-18550000D02*
X-13808414Y-19137980D01*
X-6500000Y-19950000D02*
X-6809973Y-19950000D01*
X-6809973Y-19950000D02*
X-7091238Y-19668735D01*
X-5800000Y-19950000D02*
X-5700000Y-19950000D01*
X-6500000Y-19950000D02*
X-5800000Y-19950000D01*
X-5700000Y-19950000D02*
X-5200000Y-19450000D01*
X-8050000Y-19650000D02*
X-6800000Y-19650000D01*
X-6800000Y-19650000D02*
X-6500000Y-19950000D01*
X-11312500Y-19037500D02*
X-11312500Y-20762500D01*
X-9587500Y-20762500D02*
X-11312500Y-20762500D01*
X-9587500Y-19037500D02*
X-9587500Y-20762500D01*
X-8050000Y-19650000D02*
X-8975000Y-19650000D01*
X-8975000Y-19650000D02*
X-9587500Y-19037500D01*
X-12850000Y-20150000D02*
X-11925000Y-20150000D01*
X-11925000Y-20150000D02*
X-11312500Y-20762500D01*
X-12850000Y-19150000D02*
X-11425000Y-19150000D01*
X-11425000Y-19150000D02*
X-11312500Y-19037500D01*
X-13901830Y-23600000D02*
X-13700000Y-23801830D01*
X-14101830Y-23400000D02*
X-13901830Y-23600000D01*
X-13901830Y-23600000D02*
X-13901830Y-23554672D01*
X-13901830Y-23554672D02*
X-13646139Y-23298981D01*
X-13700000Y-23801830D02*
X-13800000Y-23901830D01*
X-13800000Y-23901830D02*
X-14498900Y-24600730D01*
X-13646139Y-23298981D02*
X-13646139Y-23747969D01*
X-13346140Y-22998982D02*
X-13646139Y-23298981D01*
X-13646139Y-23747969D02*
X-13800000Y-23901830D01*
X-13700000Y-23673899D02*
X-13700000Y-23801830D01*
X-11145558Y-15929442D02*
X-10700000Y-16375000D01*
X-10700000Y-16375000D02*
X-10700000Y-17500000D01*
X-14400000Y-23400000D02*
X-14101830Y-23400000D01*
X-14498900Y-24600730D02*
X-14498900Y-25003600D01*
X-10000000Y-14700000D02*
X-10047911Y-14652089D01*
X-10047911Y-14652089D02*
X-10331795Y-14652089D01*
X-9600000Y-15100000D02*
X-10000000Y-14700000D01*
X-9600000Y-15100000D02*
X-8700000Y-16000000D01*
X-9200000Y-17100000D02*
X-9200000Y-17500000D01*
X-8700000Y-16000000D02*
X-8700000Y-16439998D01*
X-8700000Y-16439998D02*
X-9200000Y-16939998D01*
X-9200000Y-16939998D02*
X-9200000Y-17100000D01*
X-16498900Y-13503600D02*
X-15748900Y-13503600D01*
X-15748900Y-13503600D02*
X-12200000Y-17052500D01*
X-12200000Y-17052500D02*
X-12200000Y-17500000D01*
X-8700000Y-22300000D02*
X-8400000Y-22300000D01*
X-8400000Y-22300000D02*
X-8000000Y-22700000D01*
X-9700000Y-22300000D02*
X-9700000Y-22996412D01*
X-9700000Y-22996412D02*
X-8498900Y-24197512D01*
X-8498900Y-24197512D02*
X-8498900Y-24200000D01*
X-8498900Y-24200000D02*
X-8498900Y-25003600D01*
X-10200000Y-22300000D02*
X-10200000Y-22400000D01*
X-10200000Y-22400000D02*
X-10150010Y-22449990D01*
X-10150010Y-22449990D02*
X-10150010Y-24250010D01*
X-10150010Y-24250010D02*
X-10498900Y-24598900D01*
X-10498900Y-24598900D02*
X-10498900Y-25003600D01*
X-9200000Y-22300000D02*
X-9200000Y-22860002D01*
X-9200000Y-22860002D02*
X-9085001Y-22975001D01*
X-9085001Y-22975001D02*
X-8650001Y-22975001D01*
X-8100000Y-23525002D02*
X-7227498Y-23525002D01*
X-8650001Y-22975001D02*
X-8100000Y-23525002D01*
X-7227498Y-23525002D02*
X-6498900Y-24253600D01*
X-6498900Y-24253600D02*
X-6498900Y-25003600D01*
X-4900000Y-23800000D02*
X-4498900Y-24201100D01*
X-4498900Y-24201100D02*
X-4498900Y-25003600D01*
X-5974998Y-23800000D02*
X-4900000Y-23800000D01*
X-8050000Y-21650000D02*
X-8050000Y-21724998D01*
X-8050000Y-21724998D02*
X-5974998Y-23800000D01*
X-2498900Y-11503600D02*
X-8067190Y-11503600D01*
X-8067190Y-11503600D02*
X-11800000Y-15236410D01*
X-11800000Y-16179680D02*
X-11200000Y-16779680D01*
X-11200000Y-16779680D02*
X-11200000Y-17000000D01*
X-11800000Y-15236410D02*
X-11800000Y-16179680D01*
X-11200000Y-17000000D02*
X-11200000Y-17500000D01*
X-2498900Y-9503600D02*
X-6703600Y-9503600D01*
X-6703600Y-9503600D02*
X-12700000Y-15500000D01*
X-12700000Y-15500000D02*
X-12700000Y-15916090D01*
X-12700000Y-15916090D02*
X-11700000Y-16916090D01*
X-11700000Y-16916090D02*
X-11700000Y-17000000D01*
X-11700000Y-17000000D02*
X-11700000Y-17500000D01*
X-2498900Y-21503600D02*
X-2903600Y-21503600D01*
X-2903600Y-21503600D02*
X-3600000Y-22200000D01*
X-8050000Y-18650000D02*
X-4639998Y-18650000D01*
X-3400000Y-20700000D02*
X-2596400Y-21503600D01*
X-4639998Y-18650000D02*
X-3400000Y-19889998D01*
X-3400000Y-19889998D02*
X-3400000Y-20700000D01*
X-2596400Y-21503600D02*
X-2498900Y-21503600D01*
X-8050000Y-18150000D02*
X-3852500Y-18150000D01*
X-3852500Y-18150000D02*
X-2498900Y-19503600D01*
X-8700000Y-17500000D02*
X-2502500Y-17500000D01*
X-2502500Y-17500000D02*
X-2498900Y-17503600D01*
X-6300000Y-15458058D02*
X-2544442Y-15458058D01*
X-7678152Y-14794268D02*
X-7378153Y-15094267D01*
X-7378153Y-15094267D02*
X-6663791Y-15094267D01*
X-6663791Y-15094267D02*
X-6300000Y-15458058D01*
X-2544442Y-15458058D02*
X-2498900Y-15503600D01*
X-9700000Y-17500000D02*
X-9700000Y-16500000D01*
X-9700000Y-16500000D02*
X-9400000Y-16200000D01*
X-8100000Y-13500000D02*
X-2502500Y-13500000D01*
X-10200000Y-17500000D02*
X-10200000Y-15991576D01*
X-10200000Y-15991576D02*
X-10244039Y-15947537D01*
X-2502500Y-13500000D02*
X-2498900Y-13503600D01*
X-10700000Y-22300000D02*
X-10700000Y-22924991D01*
X-10700000Y-22924991D02*
X-10800000Y-23024991D01*
X-11200000Y-22300000D02*
X-11200000Y-22900000D01*
X-11200000Y-22900000D02*
X-11800000Y-23500000D01*
X-5100000Y-22200000D02*
X-5100000Y-21050000D01*
X-5100000Y-21050000D02*
X-5200000Y-20950000D01*
X-8050000Y-20150000D02*
X-7489998Y-20150000D01*
X-7100010Y-20699990D02*
X-5450010Y-20699990D01*
X-7489998Y-20150000D02*
X-7200001Y-20439997D01*
X-7200001Y-20439997D02*
X-7200001Y-20599999D01*
X-7200001Y-20599999D02*
X-7100010Y-20699990D01*
X-5450010Y-20699990D02*
X-5200000Y-20950000D01*
D20*
G36*
X-3825000Y-20066038D02*
X-3825000Y-20700000D01*
X-3802594Y-20812641D01*
X-3792649Y-20862641D01*
X-3700520Y-21000520D01*
X-3351040Y-21350000D01*
X-3445164Y-21444123D01*
X-3850000Y-21444123D01*
X-3961173Y-21465042D01*
X-4063279Y-21530745D01*
X-4131778Y-21630997D01*
X-4155877Y-21750000D01*
X-4155877Y-22650000D01*
X-4134958Y-22761173D01*
X-4069255Y-22863279D01*
X-3969003Y-22931778D01*
X-3850000Y-22955877D01*
X-3350000Y-22955877D01*
X-3298900Y-22946262D01*
X-3298900Y-23403600D01*
X-3223900Y-23478600D01*
X-2523900Y-23478600D01*
X-2523900Y-22778600D01*
X-2598900Y-22703600D01*
X-3054977Y-22703600D01*
X-3044123Y-22650000D01*
X-3044123Y-22300319D01*
X-2998900Y-22309477D01*
X-1873900Y-22309477D01*
X-1873900Y-22703600D01*
X-2398900Y-22703600D01*
X-2473900Y-22778600D01*
X-2473900Y-23478600D01*
X-2453900Y-23478600D01*
X-2453900Y-23528600D01*
X-2473900Y-23528600D01*
X-2473900Y-24228600D01*
X-2398900Y-24303600D01*
X-1873900Y-24303600D01*
X-1873900Y-24628600D01*
X-3693023Y-24628600D01*
X-3693023Y-24503600D01*
X-3713942Y-24392427D01*
X-3779645Y-24290321D01*
X-3879897Y-24221822D01*
X-3998900Y-24197723D01*
X-4074572Y-24197723D01*
X-4106251Y-24038460D01*
X-4106251Y-24038459D01*
X-4198380Y-23900580D01*
X-4495360Y-23603600D01*
X-3298900Y-23603600D01*
X-3298900Y-24063273D01*
X-3253228Y-24173536D01*
X-3168837Y-24257928D01*
X-3058574Y-24303600D01*
X-2598900Y-24303600D01*
X-2523900Y-24228600D01*
X-2523900Y-23528600D01*
X-3223900Y-23528600D01*
X-3298900Y-23603600D01*
X-4495360Y-23603600D01*
X-4599480Y-23499480D01*
X-4737359Y-23407351D01*
X-4774316Y-23400000D01*
X-4900000Y-23375000D01*
X-5798958Y-23375000D01*
X-7080658Y-22093300D01*
X-7061752Y-22085487D01*
X-6994003Y-22131778D01*
X-6875000Y-22155877D01*
X-6125000Y-22155877D01*
X-6013827Y-22134958D01*
X-5911721Y-22069255D01*
X-5843222Y-21969003D01*
X-5819123Y-21850000D01*
X-5819123Y-21524633D01*
X-5794255Y-21563279D01*
X-5694003Y-21631778D01*
X-5634381Y-21643852D01*
X-5655877Y-21750000D01*
X-5655877Y-22650000D01*
X-5634958Y-22761173D01*
X-5569255Y-22863279D01*
X-5469003Y-22931778D01*
X-5350000Y-22955877D01*
X-4850000Y-22955877D01*
X-4738827Y-22934958D01*
X-4636721Y-22869255D01*
X-4568222Y-22769003D01*
X-4544123Y-22650000D01*
X-4544123Y-21750000D01*
X-4565042Y-21638827D01*
X-4610737Y-21567815D01*
X-4543222Y-21469003D01*
X-4519123Y-21350000D01*
X-4519123Y-20550000D01*
X-4540042Y-20438827D01*
X-4605745Y-20336721D01*
X-4705997Y-20268222D01*
X-4825000Y-20244123D01*
X-5575000Y-20244123D01*
X-5686173Y-20265042D01*
X-5701633Y-20274990D01*
X-5825000Y-20274990D01*
X-5825000Y-20050000D01*
X-5899998Y-19975002D01*
X-5847941Y-19975002D01*
X-5829328Y-20019937D01*
X-5744936Y-20104328D01*
X-5634673Y-20150000D01*
X-5300000Y-20150000D01*
X-5225000Y-20075000D01*
X-5225000Y-19475000D01*
X-5175000Y-19475000D01*
X-5175000Y-20075000D01*
X-5100000Y-20150000D01*
X-4765327Y-20150000D01*
X-4655064Y-20104328D01*
X-4570672Y-20019937D01*
X-4525000Y-19909674D01*
X-4525000Y-19550000D01*
X-4600000Y-19475000D01*
X-5175000Y-19475000D01*
X-5225000Y-19475000D01*
X-5245000Y-19475000D01*
X-5245000Y-19425000D01*
X-5225000Y-19425000D01*
X-5225000Y-19405000D01*
X-5175000Y-19405000D01*
X-5175000Y-19425000D01*
X-4600000Y-19425000D01*
X-4533019Y-19358019D01*
X-3825000Y-20066038D01*
X-3825000Y-20066038D01*
G37*
X-3825000Y-20066038D02*
X-3825000Y-20700000D01*
X-3802594Y-20812641D01*
X-3792649Y-20862641D01*
X-3700520Y-21000520D01*
X-3351040Y-21350000D01*
X-3445164Y-21444123D01*
X-3850000Y-21444123D01*
X-3961173Y-21465042D01*
X-4063279Y-21530745D01*
X-4131778Y-21630997D01*
X-4155877Y-21750000D01*
X-4155877Y-22650000D01*
X-4134958Y-22761173D01*
X-4069255Y-22863279D01*
X-3969003Y-22931778D01*
X-3850000Y-22955877D01*
X-3350000Y-22955877D01*
X-3298900Y-22946262D01*
X-3298900Y-23403600D01*
X-3223900Y-23478600D01*
X-2523900Y-23478600D01*
X-2523900Y-22778600D01*
X-2598900Y-22703600D01*
X-3054977Y-22703600D01*
X-3044123Y-22650000D01*
X-3044123Y-22300319D01*
X-2998900Y-22309477D01*
X-1873900Y-22309477D01*
X-1873900Y-22703600D01*
X-2398900Y-22703600D01*
X-2473900Y-22778600D01*
X-2473900Y-23478600D01*
X-2453900Y-23478600D01*
X-2453900Y-23528600D01*
X-2473900Y-23528600D01*
X-2473900Y-24228600D01*
X-2398900Y-24303600D01*
X-1873900Y-24303600D01*
X-1873900Y-24628600D01*
X-3693023Y-24628600D01*
X-3693023Y-24503600D01*
X-3713942Y-24392427D01*
X-3779645Y-24290321D01*
X-3879897Y-24221822D01*
X-3998900Y-24197723D01*
X-4074572Y-24197723D01*
X-4106251Y-24038460D01*
X-4106251Y-24038459D01*
X-4198380Y-23900580D01*
X-4495360Y-23603600D01*
X-3298900Y-23603600D01*
X-3298900Y-24063273D01*
X-3253228Y-24173536D01*
X-3168837Y-24257928D01*
X-3058574Y-24303600D01*
X-2598900Y-24303600D01*
X-2523900Y-24228600D01*
X-2523900Y-23528600D01*
X-3223900Y-23528600D01*
X-3298900Y-23603600D01*
X-4495360Y-23603600D01*
X-4599480Y-23499480D01*
X-4737359Y-23407351D01*
X-4774316Y-23400000D01*
X-4900000Y-23375000D01*
X-5798958Y-23375000D01*
X-7080658Y-22093300D01*
X-7061752Y-22085487D01*
X-6994003Y-22131778D01*
X-6875000Y-22155877D01*
X-6125000Y-22155877D01*
X-6013827Y-22134958D01*
X-5911721Y-22069255D01*
X-5843222Y-21969003D01*
X-5819123Y-21850000D01*
X-5819123Y-21524633D01*
X-5794255Y-21563279D01*
X-5694003Y-21631778D01*
X-5634381Y-21643852D01*
X-5655877Y-21750000D01*
X-5655877Y-22650000D01*
X-5634958Y-22761173D01*
X-5569255Y-22863279D01*
X-5469003Y-22931778D01*
X-5350000Y-22955877D01*
X-4850000Y-22955877D01*
X-4738827Y-22934958D01*
X-4636721Y-22869255D01*
X-4568222Y-22769003D01*
X-4544123Y-22650000D01*
X-4544123Y-21750000D01*
X-4565042Y-21638827D01*
X-4610737Y-21567815D01*
X-4543222Y-21469003D01*
X-4519123Y-21350000D01*
X-4519123Y-20550000D01*
X-4540042Y-20438827D01*
X-4605745Y-20336721D01*
X-4705997Y-20268222D01*
X-4825000Y-20244123D01*
X-5575000Y-20244123D01*
X-5686173Y-20265042D01*
X-5701633Y-20274990D01*
X-5825000Y-20274990D01*
X-5825000Y-20050000D01*
X-5899998Y-19975002D01*
X-5847941Y-19975002D01*
X-5829328Y-20019937D01*
X-5744936Y-20104328D01*
X-5634673Y-20150000D01*
X-5300000Y-20150000D01*
X-5225000Y-20075000D01*
X-5225000Y-19475000D01*
X-5175000Y-19475000D01*
X-5175000Y-20075000D01*
X-5100000Y-20150000D01*
X-4765327Y-20150000D01*
X-4655064Y-20104328D01*
X-4570672Y-20019937D01*
X-4525000Y-19909674D01*
X-4525000Y-19550000D01*
X-4600000Y-19475000D01*
X-5175000Y-19475000D01*
X-5225000Y-19475000D01*
X-5245000Y-19475000D01*
X-5245000Y-19425000D01*
X-5225000Y-19425000D01*
X-5225000Y-19405000D01*
X-5175000Y-19405000D01*
X-5175000Y-19425000D01*
X-4600000Y-19425000D01*
X-4533019Y-19358019D01*
X-3825000Y-20066038D01*
G36*
X-15029328Y-17980063D02*
X-15075000Y-18090326D01*
X-15075000Y-18450000D01*
X-15000000Y-18525000D01*
X-14425000Y-18525000D01*
X-14425000Y-18505000D01*
X-14375000Y-18505000D01*
X-14375000Y-18525000D01*
X-14355000Y-18525000D01*
X-14355000Y-18575000D01*
X-14375000Y-18575000D01*
X-14375000Y-19175000D01*
X-14300000Y-19250000D01*
X-13965327Y-19250000D01*
X-13855064Y-19204328D01*
X-13770672Y-19119937D01*
X-13725000Y-19009674D01*
X-13725000Y-18936042D01*
X-13710522Y-18950520D01*
X-13572643Y-19042649D01*
X-13545659Y-19048016D01*
X-13491139Y-19058861D01*
X-13425000Y-19125000D01*
X-12875000Y-19125000D01*
X-12875000Y-19105000D01*
X-12825000Y-19105000D01*
X-12825000Y-19125000D01*
X-12805000Y-19125000D01*
X-12805000Y-19175000D01*
X-12825000Y-19175000D01*
X-12825000Y-19195000D01*
X-12875000Y-19195000D01*
X-12875000Y-19175000D01*
X-13425000Y-19175000D01*
X-13481208Y-19231208D01*
X-13612640Y-19257351D01*
X-13612642Y-19257352D01*
X-13612641Y-19257352D01*
X-13750521Y-19349480D01*
X-13824765Y-19423725D01*
X-13905997Y-19368222D01*
X-14025000Y-19344123D01*
X-14775000Y-19344123D01*
X-14886173Y-19365042D01*
X-14988279Y-19430745D01*
X-15056778Y-19530997D01*
X-15080877Y-19650000D01*
X-15080877Y-20450000D01*
X-15059958Y-20561173D01*
X-14994255Y-20663279D01*
X-14894003Y-20731778D01*
X-14825000Y-20745752D01*
X-14825000Y-21344123D01*
X-14850000Y-21344123D01*
X-14961173Y-21365042D01*
X-15063279Y-21430745D01*
X-15131778Y-21530997D01*
X-15155877Y-21650000D01*
X-15155877Y-21854836D01*
X-15600520Y-22299480D01*
X-15692649Y-22437359D01*
X-15697678Y-22462641D01*
X-15725000Y-22600000D01*
X-15725000Y-22875242D01*
X-15779645Y-22790321D01*
X-15879897Y-22721822D01*
X-15998900Y-22697723D01*
X-17123900Y-22697723D01*
X-17123900Y-22309477D01*
X-15998900Y-22309477D01*
X-15887727Y-22288558D01*
X-15785621Y-22222855D01*
X-15717122Y-22122603D01*
X-15693023Y-22003600D01*
X-15693023Y-21003600D01*
X-15713942Y-20892427D01*
X-15779645Y-20790321D01*
X-15879897Y-20721822D01*
X-15998900Y-20697723D01*
X-17123900Y-20697723D01*
X-17123900Y-20309477D01*
X-15998900Y-20309477D01*
X-15887727Y-20288558D01*
X-15785621Y-20222855D01*
X-15717122Y-20122603D01*
X-15693023Y-20003600D01*
X-15693023Y-19003600D01*
X-15713942Y-18892427D01*
X-15779645Y-18790321D01*
X-15879897Y-18721822D01*
X-15998900Y-18697723D01*
X-17123900Y-18697723D01*
X-17123900Y-18650000D01*
X-15075000Y-18650000D01*
X-15075000Y-19009674D01*
X-15029328Y-19119937D01*
X-14944936Y-19204328D01*
X-14834673Y-19250000D01*
X-14500000Y-19250000D01*
X-14425000Y-19175000D01*
X-14425000Y-18575000D01*
X-15000000Y-18575000D01*
X-15075000Y-18650000D01*
X-17123900Y-18650000D01*
X-17123900Y-18309477D01*
X-15998900Y-18309477D01*
X-15887727Y-18288558D01*
X-15785621Y-18222855D01*
X-15717122Y-18122603D01*
X-15693023Y-18003600D01*
X-15693023Y-17928600D01*
X-14977864Y-17928600D01*
X-15029328Y-17980063D01*
X-15029328Y-17980063D01*
G37*
X-15029328Y-17980063D02*
X-15075000Y-18090326D01*
X-15075000Y-18450000D01*
X-15000000Y-18525000D01*
X-14425000Y-18525000D01*
X-14425000Y-18505000D01*
X-14375000Y-18505000D01*
X-14375000Y-18525000D01*
X-14355000Y-18525000D01*
X-14355000Y-18575000D01*
X-14375000Y-18575000D01*
X-14375000Y-19175000D01*
X-14300000Y-19250000D01*
X-13965327Y-19250000D01*
X-13855064Y-19204328D01*
X-13770672Y-19119937D01*
X-13725000Y-19009674D01*
X-13725000Y-18936042D01*
X-13710522Y-18950520D01*
X-13572643Y-19042649D01*
X-13545659Y-19048016D01*
X-13491139Y-19058861D01*
X-13425000Y-19125000D01*
X-12875000Y-19125000D01*
X-12875000Y-19105000D01*
X-12825000Y-19105000D01*
X-12825000Y-19125000D01*
X-12805000Y-19125000D01*
X-12805000Y-19175000D01*
X-12825000Y-19175000D01*
X-12825000Y-19195000D01*
X-12875000Y-19195000D01*
X-12875000Y-19175000D01*
X-13425000Y-19175000D01*
X-13481208Y-19231208D01*
X-13612640Y-19257351D01*
X-13612642Y-19257352D01*
X-13612641Y-19257352D01*
X-13750521Y-19349480D01*
X-13824765Y-19423725D01*
X-13905997Y-19368222D01*
X-14025000Y-19344123D01*
X-14775000Y-19344123D01*
X-14886173Y-19365042D01*
X-14988279Y-19430745D01*
X-15056778Y-19530997D01*
X-15080877Y-19650000D01*
X-15080877Y-20450000D01*
X-15059958Y-20561173D01*
X-14994255Y-20663279D01*
X-14894003Y-20731778D01*
X-14825000Y-20745752D01*
X-14825000Y-21344123D01*
X-14850000Y-21344123D01*
X-14961173Y-21365042D01*
X-15063279Y-21430745D01*
X-15131778Y-21530997D01*
X-15155877Y-21650000D01*
X-15155877Y-21854836D01*
X-15600520Y-22299480D01*
X-15692649Y-22437359D01*
X-15697678Y-22462641D01*
X-15725000Y-22600000D01*
X-15725000Y-22875242D01*
X-15779645Y-22790321D01*
X-15879897Y-22721822D01*
X-15998900Y-22697723D01*
X-17123900Y-22697723D01*
X-17123900Y-22309477D01*
X-15998900Y-22309477D01*
X-15887727Y-22288558D01*
X-15785621Y-22222855D01*
X-15717122Y-22122603D01*
X-15693023Y-22003600D01*
X-15693023Y-21003600D01*
X-15713942Y-20892427D01*
X-15779645Y-20790321D01*
X-15879897Y-20721822D01*
X-15998900Y-20697723D01*
X-17123900Y-20697723D01*
X-17123900Y-20309477D01*
X-15998900Y-20309477D01*
X-15887727Y-20288558D01*
X-15785621Y-20222855D01*
X-15717122Y-20122603D01*
X-15693023Y-20003600D01*
X-15693023Y-19003600D01*
X-15713942Y-18892427D01*
X-15779645Y-18790321D01*
X-15879897Y-18721822D01*
X-15998900Y-18697723D01*
X-17123900Y-18697723D01*
X-17123900Y-18650000D01*
X-15075000Y-18650000D01*
X-15075000Y-19009674D01*
X-15029328Y-19119937D01*
X-14944936Y-19204328D01*
X-14834673Y-19250000D01*
X-14500000Y-19250000D01*
X-14425000Y-19175000D01*
X-14425000Y-18575000D01*
X-15000000Y-18575000D01*
X-15075000Y-18650000D01*
X-17123900Y-18650000D01*
X-17123900Y-18309477D01*
X-15998900Y-18309477D01*
X-15887727Y-18288558D01*
X-15785621Y-18222855D01*
X-15717122Y-18122603D01*
X-15693023Y-18003600D01*
X-15693023Y-17928600D01*
X-14977864Y-17928600D01*
X-15029328Y-17980063D01*
G36*
X-11287500Y-19012500D02*
X-9612500Y-19012500D01*
X-9612500Y-18992500D01*
X-9562500Y-18992500D01*
X-9562500Y-19012500D01*
X-9542500Y-19012500D01*
X-9542500Y-19062500D01*
X-9562500Y-19062500D01*
X-9562500Y-20737500D01*
X-9542500Y-20737500D01*
X-9542500Y-20787500D01*
X-9562500Y-20787500D01*
X-9562500Y-20807500D01*
X-9612500Y-20807500D01*
X-9612500Y-20787500D01*
X-11287500Y-20787500D01*
X-11287500Y-20807500D01*
X-11337500Y-20807500D01*
X-11337500Y-20787500D01*
X-11357500Y-20787500D01*
X-11357500Y-20737500D01*
X-11337500Y-20737500D01*
X-11337500Y-19062500D01*
X-11287500Y-19062500D01*
X-11287500Y-20737500D01*
X-9612500Y-20737500D01*
X-9612500Y-19062500D01*
X-11287500Y-19062500D01*
X-11337500Y-19062500D01*
X-11357500Y-19062500D01*
X-11357500Y-19012500D01*
X-11337500Y-19012500D01*
X-11337500Y-18992500D01*
X-11287500Y-18992500D01*
X-11287500Y-19012500D01*
X-11287500Y-19012500D01*
G37*
X-11287500Y-19012500D02*
X-9612500Y-19012500D01*
X-9612500Y-18992500D01*
X-9562500Y-18992500D01*
X-9562500Y-19012500D01*
X-9542500Y-19012500D01*
X-9542500Y-19062500D01*
X-9562500Y-19062500D01*
X-9562500Y-20737500D01*
X-9542500Y-20737500D01*
X-9542500Y-20787500D01*
X-9562500Y-20787500D01*
X-9562500Y-20807500D01*
X-9612500Y-20807500D01*
X-9612500Y-20787500D01*
X-11287500Y-20787500D01*
X-11287500Y-20807500D01*
X-11337500Y-20807500D01*
X-11337500Y-20787500D01*
X-11357500Y-20787500D01*
X-11357500Y-20737500D01*
X-11337500Y-20737500D01*
X-11337500Y-19062500D01*
X-11287500Y-19062500D01*
X-11287500Y-20737500D01*
X-9612500Y-20737500D01*
X-9612500Y-19062500D01*
X-11287500Y-19062500D01*
X-11337500Y-19062500D01*
X-11357500Y-19062500D01*
X-11357500Y-19012500D01*
X-11337500Y-19012500D01*
X-11337500Y-18992500D01*
X-11287500Y-18992500D01*
X-11287500Y-19012500D01*
G36*
X-12825000Y-20125000D02*
X-12805000Y-20125000D01*
X-12805000Y-20175000D01*
X-12825000Y-20175000D01*
X-12825000Y-20195000D01*
X-12875000Y-20195000D01*
X-12875000Y-20175000D01*
X-12895000Y-20175000D01*
X-12895000Y-20125000D01*
X-12875000Y-20125000D01*
X-12875000Y-20105000D01*
X-12825000Y-20105000D01*
X-12825000Y-20125000D01*
X-12825000Y-20125000D01*
G37*
X-12825000Y-20125000D02*
X-12805000Y-20125000D01*
X-12805000Y-20175000D01*
X-12825000Y-20175000D01*
X-12825000Y-20195000D01*
X-12875000Y-20195000D01*
X-12875000Y-20175000D01*
X-12895000Y-20175000D01*
X-12895000Y-20125000D01*
X-12875000Y-20125000D01*
X-12875000Y-20105000D01*
X-12825000Y-20105000D01*
X-12825000Y-20125000D01*
G36*
X-5875000Y-19350000D02*
X-5800002Y-19424998D01*
X-5852059Y-19424998D01*
X-5870672Y-19380063D01*
X-5955064Y-19295672D01*
X-6065327Y-19250000D01*
X-6400000Y-19250000D01*
X-6475000Y-19325000D01*
X-6475000Y-19925000D01*
X-6455000Y-19925000D01*
X-6455000Y-19975000D01*
X-6475000Y-19975000D01*
X-6475000Y-19995000D01*
X-6525000Y-19995000D01*
X-6525000Y-19975000D01*
X-6545000Y-19975000D01*
X-6545000Y-19925000D01*
X-6525000Y-19925000D01*
X-6525000Y-19325000D01*
X-6600000Y-19250000D01*
X-6934673Y-19250000D01*
X-7044936Y-19295672D01*
X-7129328Y-19380063D01*
X-7175000Y-19490326D01*
X-7175000Y-19850000D01*
X-7100002Y-19924998D01*
X-7113960Y-19924998D01*
X-7189478Y-19849480D01*
X-7327357Y-19757351D01*
X-7364314Y-19750000D01*
X-7408861Y-19741139D01*
X-7475000Y-19675000D01*
X-8025000Y-19675000D01*
X-8025000Y-19695000D01*
X-8075000Y-19695000D01*
X-8075000Y-19675000D01*
X-8095000Y-19675000D01*
X-8095000Y-19625000D01*
X-8075000Y-19625000D01*
X-8075000Y-19605000D01*
X-8025000Y-19605000D01*
X-8025000Y-19625000D01*
X-7475000Y-19625000D01*
X-7400000Y-19550000D01*
X-7400000Y-19465327D01*
X-7425270Y-19404319D01*
X-7418222Y-19394003D01*
X-7394123Y-19275000D01*
X-7394123Y-19075000D01*
X-5875000Y-19075000D01*
X-5875000Y-19350000D01*
X-5875000Y-19350000D01*
G37*
X-5875000Y-19350000D02*
X-5800002Y-19424998D01*
X-5852059Y-19424998D01*
X-5870672Y-19380063D01*
X-5955064Y-19295672D01*
X-6065327Y-19250000D01*
X-6400000Y-19250000D01*
X-6475000Y-19325000D01*
X-6475000Y-19925000D01*
X-6455000Y-19925000D01*
X-6455000Y-19975000D01*
X-6475000Y-19975000D01*
X-6475000Y-19995000D01*
X-6525000Y-19995000D01*
X-6525000Y-19975000D01*
X-6545000Y-19975000D01*
X-6545000Y-19925000D01*
X-6525000Y-19925000D01*
X-6525000Y-19325000D01*
X-6600000Y-19250000D01*
X-6934673Y-19250000D01*
X-7044936Y-19295672D01*
X-7129328Y-19380063D01*
X-7175000Y-19490326D01*
X-7175000Y-19850000D01*
X-7100002Y-19924998D01*
X-7113960Y-19924998D01*
X-7189478Y-19849480D01*
X-7327357Y-19757351D01*
X-7364314Y-19750000D01*
X-7408861Y-19741139D01*
X-7475000Y-19675000D01*
X-8025000Y-19675000D01*
X-8025000Y-19695000D01*
X-8075000Y-19695000D01*
X-8075000Y-19675000D01*
X-8095000Y-19675000D01*
X-8095000Y-19625000D01*
X-8075000Y-19625000D01*
X-8075000Y-19605000D01*
X-8025000Y-19605000D01*
X-8025000Y-19625000D01*
X-7475000Y-19625000D01*
X-7400000Y-19550000D01*
X-7400000Y-19465327D01*
X-7425270Y-19404319D01*
X-7418222Y-19394003D01*
X-7394123Y-19275000D01*
X-7394123Y-19075000D01*
X-5875000Y-19075000D01*
X-5875000Y-19350000D01*
G36*
X-3304777Y-12003600D02*
X-3283858Y-12114773D01*
X-3218155Y-12216879D01*
X-3117903Y-12285378D01*
X-2998900Y-12309477D01*
X-1873900Y-12309477D01*
X-1873900Y-12697723D01*
X-2998900Y-12697723D01*
X-3110073Y-12718642D01*
X-3212179Y-12784345D01*
X-3280678Y-12884597D01*
X-3304777Y-13003600D01*
X-3304777Y-13075000D01*
X-7676470Y-13075000D01*
X-7759683Y-12991641D01*
X-7980129Y-12900104D01*
X-8218824Y-12899896D01*
X-8439429Y-12991048D01*
X-8608359Y-13159683D01*
X-8699896Y-13380129D01*
X-8700104Y-13618824D01*
X-8608952Y-13839429D01*
X-8440317Y-14008359D01*
X-8219871Y-14099896D01*
X-7981176Y-14100104D01*
X-7760571Y-14008952D01*
X-7676472Y-13925000D01*
X-3304777Y-13925000D01*
X-3304777Y-14003600D01*
X-3283858Y-14114773D01*
X-3218155Y-14216879D01*
X-3117903Y-14285378D01*
X-2998900Y-14309477D01*
X-1873900Y-14309477D01*
X-1873900Y-14697723D01*
X-2998900Y-14697723D01*
X-3110073Y-14718642D01*
X-3212179Y-14784345D01*
X-3280678Y-14884597D01*
X-3304777Y-15003600D01*
X-3304777Y-15033058D01*
X-6123960Y-15033058D01*
X-6363271Y-14793747D01*
X-6501150Y-14701618D01*
X-6528134Y-14696251D01*
X-6663791Y-14669267D01*
X-7080600Y-14669267D01*
X-7169200Y-14454839D01*
X-7337835Y-14285909D01*
X-7558281Y-14194372D01*
X-7796976Y-14194164D01*
X-8017581Y-14285316D01*
X-8186511Y-14453951D01*
X-8278048Y-14674397D01*
X-8278256Y-14913092D01*
X-8187104Y-15133697D01*
X-8018469Y-15302627D01*
X-7798023Y-15394164D01*
X-7679193Y-15394268D01*
X-7678673Y-15394788D01*
X-7540794Y-15486916D01*
X-7378153Y-15519267D01*
X-6839831Y-15519267D01*
X-6600520Y-15758578D01*
X-6462640Y-15850707D01*
X-6300000Y-15883058D01*
X-3304777Y-15883058D01*
X-3304777Y-16003600D01*
X-3283858Y-16114773D01*
X-3218155Y-16216879D01*
X-3117903Y-16285378D01*
X-2998900Y-16309477D01*
X-1873900Y-16309477D01*
X-1873900Y-16697723D01*
X-2998900Y-16697723D01*
X-3110073Y-16718642D01*
X-3212179Y-16784345D01*
X-3280678Y-16884597D01*
X-3304777Y-17003600D01*
X-3304777Y-17075000D01*
X-8283235Y-17075000D01*
X-8290042Y-17038827D01*
X-8355745Y-16936721D01*
X-8455997Y-16868222D01*
X-8515195Y-16856234D01*
X-8399479Y-16740518D01*
X-8307351Y-16602639D01*
X-8275000Y-16439998D01*
X-8275000Y-16000000D01*
X-8307351Y-15837360D01*
X-8340980Y-15787031D01*
X-8399480Y-15699479D01*
X-9299478Y-14799482D01*
X-9299480Y-14799479D01*
X-9699478Y-14399482D01*
X-9699480Y-14399479D01*
X-9747391Y-14351569D01*
X-9857341Y-14278102D01*
X-9991478Y-14143730D01*
X-10072596Y-14110047D01*
X-7891149Y-11928600D01*
X-3304777Y-11928600D01*
X-3304777Y-12003600D01*
X-3304777Y-12003600D01*
G37*
X-3304777Y-12003600D02*
X-3283858Y-12114773D01*
X-3218155Y-12216879D01*
X-3117903Y-12285378D01*
X-2998900Y-12309477D01*
X-1873900Y-12309477D01*
X-1873900Y-12697723D01*
X-2998900Y-12697723D01*
X-3110073Y-12718642D01*
X-3212179Y-12784345D01*
X-3280678Y-12884597D01*
X-3304777Y-13003600D01*
X-3304777Y-13075000D01*
X-7676470Y-13075000D01*
X-7759683Y-12991641D01*
X-7980129Y-12900104D01*
X-8218824Y-12899896D01*
X-8439429Y-12991048D01*
X-8608359Y-13159683D01*
X-8699896Y-13380129D01*
X-8700104Y-13618824D01*
X-8608952Y-13839429D01*
X-8440317Y-14008359D01*
X-8219871Y-14099896D01*
X-7981176Y-14100104D01*
X-7760571Y-14008952D01*
X-7676472Y-13925000D01*
X-3304777Y-13925000D01*
X-3304777Y-14003600D01*
X-3283858Y-14114773D01*
X-3218155Y-14216879D01*
X-3117903Y-14285378D01*
X-2998900Y-14309477D01*
X-1873900Y-14309477D01*
X-1873900Y-14697723D01*
X-2998900Y-14697723D01*
X-3110073Y-14718642D01*
X-3212179Y-14784345D01*
X-3280678Y-14884597D01*
X-3304777Y-15003600D01*
X-3304777Y-15033058D01*
X-6123960Y-15033058D01*
X-6363271Y-14793747D01*
X-6501150Y-14701618D01*
X-6528134Y-14696251D01*
X-6663791Y-14669267D01*
X-7080600Y-14669267D01*
X-7169200Y-14454839D01*
X-7337835Y-14285909D01*
X-7558281Y-14194372D01*
X-7796976Y-14194164D01*
X-8017581Y-14285316D01*
X-8186511Y-14453951D01*
X-8278048Y-14674397D01*
X-8278256Y-14913092D01*
X-8187104Y-15133697D01*
X-8018469Y-15302627D01*
X-7798023Y-15394164D01*
X-7679193Y-15394268D01*
X-7678673Y-15394788D01*
X-7540794Y-15486916D01*
X-7378153Y-15519267D01*
X-6839831Y-15519267D01*
X-6600520Y-15758578D01*
X-6462640Y-15850707D01*
X-6300000Y-15883058D01*
X-3304777Y-15883058D01*
X-3304777Y-16003600D01*
X-3283858Y-16114773D01*
X-3218155Y-16216879D01*
X-3117903Y-16285378D01*
X-2998900Y-16309477D01*
X-1873900Y-16309477D01*
X-1873900Y-16697723D01*
X-2998900Y-16697723D01*
X-3110073Y-16718642D01*
X-3212179Y-16784345D01*
X-3280678Y-16884597D01*
X-3304777Y-17003600D01*
X-3304777Y-17075000D01*
X-8283235Y-17075000D01*
X-8290042Y-17038827D01*
X-8355745Y-16936721D01*
X-8455997Y-16868222D01*
X-8515195Y-16856234D01*
X-8399479Y-16740518D01*
X-8307351Y-16602639D01*
X-8275000Y-16439998D01*
X-8275000Y-16000000D01*
X-8307351Y-15837360D01*
X-8340980Y-15787031D01*
X-8399480Y-15699479D01*
X-9299478Y-14799482D01*
X-9299480Y-14799479D01*
X-9699478Y-14399482D01*
X-9699480Y-14399479D01*
X-9747391Y-14351569D01*
X-9857341Y-14278102D01*
X-9991478Y-14143730D01*
X-10072596Y-14110047D01*
X-7891149Y-11928600D01*
X-3304777Y-11928600D01*
X-3304777Y-12003600D01*
G36*
X-1873900Y-8697723D02*
X-2998900Y-8697723D01*
X-3110073Y-8718642D01*
X-3212179Y-8784345D01*
X-3280678Y-8884597D01*
X-3304777Y-9003600D01*
X-3304777Y-9078600D01*
X-6703600Y-9078600D01*
X-6866240Y-9110951D01*
X-6866242Y-9110952D01*
X-6866241Y-9110952D01*
X-7004121Y-9203080D01*
X-13000520Y-15199480D01*
X-13092649Y-15337359D01*
X-13092649Y-15337360D01*
X-13125000Y-15500000D01*
X-13125000Y-15526459D01*
X-15448380Y-13203080D01*
X-15586259Y-13110951D01*
X-15613243Y-13105584D01*
X-15693023Y-13089715D01*
X-15693023Y-13003600D01*
X-15713942Y-12892427D01*
X-15779645Y-12790321D01*
X-15879897Y-12721822D01*
X-15998900Y-12697723D01*
X-17123900Y-12697723D01*
X-17123900Y-12309477D01*
X-15998900Y-12309477D01*
X-15887727Y-12288558D01*
X-15785621Y-12222855D01*
X-15717122Y-12122603D01*
X-15693023Y-12003600D01*
X-15693023Y-11003600D01*
X-15713942Y-10892427D01*
X-15779645Y-10790321D01*
X-15879897Y-10721822D01*
X-15998900Y-10697723D01*
X-17123900Y-10697723D01*
X-17123900Y-10309477D01*
X-15998900Y-10309477D01*
X-15887727Y-10288558D01*
X-15785621Y-10222855D01*
X-15717122Y-10122603D01*
X-15693023Y-10003600D01*
X-15693023Y-9003600D01*
X-15713942Y-8892427D01*
X-15779645Y-8790321D01*
X-15879897Y-8721822D01*
X-15998900Y-8697723D01*
X-17123900Y-8697723D01*
X-17123900Y-8100000D01*
X-1873900Y-8100000D01*
X-1873900Y-8697723D01*
X-1873900Y-8697723D01*
G37*
X-1873900Y-8697723D02*
X-2998900Y-8697723D01*
X-3110073Y-8718642D01*
X-3212179Y-8784345D01*
X-3280678Y-8884597D01*
X-3304777Y-9003600D01*
X-3304777Y-9078600D01*
X-6703600Y-9078600D01*
X-6866240Y-9110951D01*
X-6866242Y-9110952D01*
X-6866241Y-9110952D01*
X-7004121Y-9203080D01*
X-13000520Y-15199480D01*
X-13092649Y-15337359D01*
X-13092649Y-15337360D01*
X-13125000Y-15500000D01*
X-13125000Y-15526459D01*
X-15448380Y-13203080D01*
X-15586259Y-13110951D01*
X-15613243Y-13105584D01*
X-15693023Y-13089715D01*
X-15693023Y-13003600D01*
X-15713942Y-12892427D01*
X-15779645Y-12790321D01*
X-15879897Y-12721822D01*
X-15998900Y-12697723D01*
X-17123900Y-12697723D01*
X-17123900Y-12309477D01*
X-15998900Y-12309477D01*
X-15887727Y-12288558D01*
X-15785621Y-12222855D01*
X-15717122Y-12122603D01*
X-15693023Y-12003600D01*
X-15693023Y-11003600D01*
X-15713942Y-10892427D01*
X-15779645Y-10790321D01*
X-15879897Y-10721822D01*
X-15998900Y-10697723D01*
X-17123900Y-10697723D01*
X-17123900Y-10309477D01*
X-15998900Y-10309477D01*
X-15887727Y-10288558D01*
X-15785621Y-10222855D01*
X-15717122Y-10122603D01*
X-15693023Y-10003600D01*
X-15693023Y-9003600D01*
X-15713942Y-8892427D01*
X-15779645Y-8790321D01*
X-15879897Y-8721822D01*
X-15998900Y-8697723D01*
X-17123900Y-8697723D01*
X-17123900Y-8100000D01*
X-1873900Y-8100000D01*
X-1873900Y-8697723D01*
G36*
X-3304777Y-10003600D02*
X-3283858Y-10114773D01*
X-3218155Y-10216879D01*
X-3117903Y-10285378D01*
X-2998900Y-10309477D01*
X-1873900Y-10309477D01*
X-1873900Y-10697723D01*
X-2998900Y-10697723D01*
X-3110073Y-10718642D01*
X-3212179Y-10784345D01*
X-3280678Y-10884597D01*
X-3304777Y-11003600D01*
X-3304777Y-11078600D01*
X-7677559Y-11078600D01*
X-6527559Y-9928600D01*
X-3304777Y-9928600D01*
X-3304777Y-10003600D01*
X-3304777Y-10003600D01*
G37*
X-3304777Y-10003600D02*
X-3283858Y-10114773D01*
X-3218155Y-10216879D01*
X-3117903Y-10285378D01*
X-2998900Y-10309477D01*
X-1873900Y-10309477D01*
X-1873900Y-10697723D01*
X-2998900Y-10697723D01*
X-3110073Y-10718642D01*
X-3212179Y-10784345D01*
X-3280678Y-10884597D01*
X-3304777Y-11003600D01*
X-3304777Y-11078600D01*
X-7677559Y-11078600D01*
X-6527559Y-9928600D01*
X-3304777Y-9928600D01*
X-3304777Y-10003600D01*
M02*
