%TF.GenerationSoftware,KiCad,Pcbnew,4.0.6*%
%TF.CreationDate,2017-07-19T01:35:51+03:00*%
%TF.ProjectId,esp12_atmega_addon,65737031325F61746D6567615F616464,rev?*%
%TF.FileFunction,Legend,Bot*%
%FSLAX46Y46*%
G04 Gerber Fmt 4.6, Leading zero omitted, Abs format (unit mm)*
G04 Created by KiCad (PCBNEW 4.0.6) date 07/19/17 01:35:51*
%MOMM*%
%LPD*%
G01*
G04 APERTURE LIST*
%ADD10C,0.100000*%
%ADD11C,0.250000*%
%ADD12C,0.120000*%
G04 APERTURE END LIST*
D10*
D11*
X-15804762Y-5333333D02*
X-15328571Y-5333333D01*
X-15900000Y-5047619D02*
X-15566667Y-6047619D01*
X-15233333Y-5047619D01*
X-15042857Y-6047619D02*
X-14471428Y-6047619D01*
X-14757143Y-5047619D02*
X-14757143Y-6047619D01*
X-14138095Y-5047619D02*
X-14138095Y-6047619D01*
X-13804761Y-5333333D01*
X-13471428Y-6047619D01*
X-13471428Y-5047619D01*
X-12614285Y-5095238D02*
X-12709523Y-5047619D01*
X-12900000Y-5047619D01*
X-12995238Y-5095238D01*
X-13042857Y-5190476D01*
X-13042857Y-5571429D01*
X-12995238Y-5666667D01*
X-12900000Y-5714286D01*
X-12709523Y-5714286D01*
X-12614285Y-5666667D01*
X-12566666Y-5571429D01*
X-12566666Y-5476190D01*
X-13042857Y-5380952D01*
X-11709523Y-5714286D02*
X-11709523Y-4904762D01*
X-11757142Y-4809524D01*
X-11804761Y-4761905D01*
X-11900000Y-4714286D01*
X-12042857Y-4714286D01*
X-12138095Y-4761905D01*
X-11709523Y-5095238D02*
X-11804761Y-5047619D01*
X-11995238Y-5047619D01*
X-12090476Y-5095238D01*
X-12138095Y-5142857D01*
X-12185714Y-5238095D01*
X-12185714Y-5523810D01*
X-12138095Y-5619048D01*
X-12090476Y-5666667D01*
X-11995238Y-5714286D01*
X-11804761Y-5714286D01*
X-11709523Y-5666667D01*
X-10804761Y-5047619D02*
X-10804761Y-5571429D01*
X-10852380Y-5666667D01*
X-10947618Y-5714286D01*
X-11138095Y-5714286D01*
X-11233333Y-5666667D01*
X-10804761Y-5095238D02*
X-10899999Y-5047619D01*
X-11138095Y-5047619D01*
X-11233333Y-5095238D01*
X-11280952Y-5190476D01*
X-11280952Y-5285714D01*
X-11233333Y-5380952D01*
X-11138095Y-5428571D01*
X-10899999Y-5428571D01*
X-10804761Y-5476190D01*
X-10423809Y-6047619D02*
X-9804761Y-6047619D01*
X-10138095Y-5666667D01*
X-9995237Y-5666667D01*
X-9899999Y-5619048D01*
X-9852380Y-5571429D01*
X-9804761Y-5476190D01*
X-9804761Y-5238095D01*
X-9852380Y-5142857D01*
X-9899999Y-5095238D01*
X-9995237Y-5047619D01*
X-10280952Y-5047619D01*
X-10376190Y-5095238D01*
X-10423809Y-5142857D01*
X-9423809Y-5952381D02*
X-9376190Y-6000000D01*
X-9280952Y-6047619D01*
X-9042856Y-6047619D01*
X-8947618Y-6000000D01*
X-8899999Y-5952381D01*
X-8852380Y-5857143D01*
X-8852380Y-5761905D01*
X-8899999Y-5619048D01*
X-9471428Y-5047619D01*
X-8852380Y-5047619D01*
X-8280952Y-5619048D02*
X-8376190Y-5666667D01*
X-8423809Y-5714286D01*
X-8471428Y-5809524D01*
X-8471428Y-5857143D01*
X-8423809Y-5952381D01*
X-8376190Y-6000000D01*
X-8280952Y-6047619D01*
X-8090475Y-6047619D01*
X-7995237Y-6000000D01*
X-7947618Y-5952381D01*
X-7899999Y-5857143D01*
X-7899999Y-5809524D01*
X-7947618Y-5714286D01*
X-7995237Y-5666667D01*
X-8090475Y-5619048D01*
X-8280952Y-5619048D01*
X-8376190Y-5571429D01*
X-8423809Y-5523810D01*
X-8471428Y-5428571D01*
X-8471428Y-5238095D01*
X-8423809Y-5142857D01*
X-8376190Y-5095238D01*
X-8280952Y-5047619D01*
X-8090475Y-5047619D01*
X-7995237Y-5095238D01*
X-7947618Y-5142857D01*
X-7899999Y-5238095D01*
X-7899999Y-5428571D01*
X-7947618Y-5523810D01*
X-7995237Y-5571429D01*
X-8090475Y-5619048D01*
X-7471428Y-5047619D02*
X-7471428Y-6047619D01*
X-7090475Y-6047619D01*
X-6995237Y-6000000D01*
X-6947618Y-5952381D01*
X-6899999Y-5857143D01*
X-6899999Y-5714286D01*
X-6947618Y-5619048D01*
X-6995237Y-5571429D01*
X-7090475Y-5523810D01*
X-7471428Y-5523810D01*
X-5709523Y-5047619D02*
X-5709523Y-5714286D01*
X-5709523Y-5619048D02*
X-5661904Y-5666667D01*
X-5566666Y-5714286D01*
X-5423808Y-5714286D01*
X-5328570Y-5666667D01*
X-5280951Y-5571429D01*
X-5280951Y-5047619D01*
X-5280951Y-5571429D02*
X-5233332Y-5666667D01*
X-5138094Y-5714286D01*
X-4995237Y-5714286D01*
X-4899999Y-5666667D01*
X-4852380Y-5571429D01*
X-4852380Y-5047619D01*
X-4233333Y-5047619D02*
X-4328571Y-5095238D01*
X-4376190Y-5142857D01*
X-4423809Y-5238095D01*
X-4423809Y-5523810D01*
X-4376190Y-5619048D01*
X-4328571Y-5666667D01*
X-4233333Y-5714286D01*
X-4090475Y-5714286D01*
X-3995237Y-5666667D01*
X-3947618Y-5619048D01*
X-3899999Y-5523810D01*
X-3899999Y-5238095D01*
X-3947618Y-5142857D01*
X-3995237Y-5095238D01*
X-4090475Y-5047619D01*
X-4233333Y-5047619D01*
X-3042856Y-5047619D02*
X-3042856Y-6047619D01*
X-3042856Y-5095238D02*
X-3138094Y-5047619D01*
X-3328571Y-5047619D01*
X-3423809Y-5095238D01*
X-3471428Y-5142857D01*
X-3519047Y-5238095D01*
X-3519047Y-5523810D01*
X-3471428Y-5619048D01*
X-3423809Y-5666667D01*
X-3328571Y-5714286D01*
X-3138094Y-5714286D01*
X-3042856Y-5666667D01*
D12*
X-3200000Y-1700000D02*
X-3200000Y-3100000D01*
X-3200000Y-3100000D02*
X-6000000Y-3100000D01*
X-3200000Y-1700000D02*
X-6000000Y-1700000D01*
X-15800000Y-3100000D02*
X-15800000Y-1700000D01*
X-15800000Y-1700000D02*
X-13000000Y-1700000D01*
X-15800000Y-3100000D02*
X-13000000Y-3100000D01*
X-7020000Y-3300000D02*
X-7020000Y-2300000D01*
X-8380000Y-2300000D02*
X-8380000Y-3300000D01*
X-10620000Y-3250000D02*
X-10620000Y-2250000D01*
X-11980000Y-2250000D02*
X-11980000Y-3250000D01*
M02*
