%TF.GenerationSoftware,KiCad,Pcbnew,4.0.6*%
%TF.CreationDate,2017-07-19T01:35:51+03:00*%
%TF.ProjectId,esp12_atmega_addon,65737031325F61746D6567615F616464,rev?*%
%TF.FileFunction,Soldermask,Bot*%
%FSLAX46Y46*%
G04 Gerber Fmt 4.6, Leading zero omitted, Abs format (unit mm)*
G04 Created by KiCad (PCBNEW 4.0.6) date 07/19/17 01:35:51*
%MOMM*%
%LPD*%
G01*
G04 APERTURE LIST*
%ADD10C,0.100000*%
%ADD11R,1.400000X1.400000*%
%ADD12R,1.600000X1.600000*%
%ADD13R,1.300000X0.900000*%
G04 APERTURE END LIST*
D10*
D11*
X-17498900Y-9503600D03*
X-17498900Y-11503600D03*
X-16498900Y-11503600D03*
X-17498900Y-13503600D03*
X-17498900Y-15503600D03*
X-17498900Y-17503600D03*
X-17498900Y-19503600D03*
X-17498900Y-21503600D03*
X-17498900Y-23503600D03*
X-16498900Y-13503600D03*
X-16498900Y-15503600D03*
X-16498900Y-17503600D03*
X-16498900Y-19503600D03*
X-16498900Y-21503600D03*
X-16498900Y-23503600D03*
X-16498900Y-9503600D03*
X-14498900Y-25003600D03*
X-12498900Y-25003600D03*
X-10498900Y-25003600D03*
X-8498900Y-25003600D03*
X-6498900Y-25003600D03*
X-4498900Y-25003600D03*
X-1498900Y-23503600D03*
X-1498900Y-21503600D03*
X-1498900Y-19503600D03*
X-1498900Y-17503600D03*
X-1498900Y-15503600D03*
X-1498900Y-13503600D03*
X-1498900Y-11503600D03*
X-1498900Y-9503600D03*
X-2498900Y-23503600D03*
X-2498900Y-21503600D03*
X-2498900Y-19503600D03*
X-2498900Y-17503600D03*
X-2498900Y-15503600D03*
X-2498900Y-13503600D03*
X-2498900Y-11503600D03*
X-2498900Y-9503600D03*
D12*
X-6100000Y-2400000D03*
X-3900000Y-2400000D03*
X-12900000Y-2400000D03*
X-15100000Y-2400000D03*
D13*
X-7700000Y-2050000D03*
X-7700000Y-3550000D03*
X-11300000Y-2000000D03*
X-11300000Y-3500000D03*
M02*
