%TF.GenerationSoftware,KiCad,Pcbnew,4.0.6*%
%TF.CreationDate,2017-07-19T01:35:51+03:00*%
%TF.ProjectId,esp12_atmega_addon,65737031325F61746D6567615F616464,rev?*%
%TF.FileFunction,Soldermask,Top*%
%FSLAX46Y46*%
G04 Gerber Fmt 4.6, Leading zero omitted, Abs format (unit mm)*
G04 Created by KiCad (PCBNEW 4.0.6) date 07/19/17 01:35:51*
%MOMM*%
%LPD*%
G01*
G04 APERTURE LIST*
%ADD10C,0.100000*%
%ADD11R,1.400000X1.400000*%
%ADD12R,1.150000X1.200000*%
%ADD13R,1.100000X0.650000*%
%ADD14R,0.650000X1.100000*%
%ADD15R,2.125000X2.125000*%
%ADD16R,1.300000X0.900000*%
%ADD17R,0.900000X1.300000*%
G04 APERTURE END LIST*
D10*
D11*
X-17498900Y-9503600D03*
X-17498900Y-11503600D03*
X-16498900Y-11503600D03*
X-17498900Y-13503600D03*
X-17498900Y-15503600D03*
X-17498900Y-17503600D03*
X-17498900Y-19503600D03*
X-17498900Y-21503600D03*
X-17498900Y-23503600D03*
X-16498900Y-13503600D03*
X-16498900Y-15503600D03*
X-16498900Y-17503600D03*
X-16498900Y-19503600D03*
X-16498900Y-21503600D03*
X-16498900Y-23503600D03*
X-16498900Y-9503600D03*
X-14498900Y-25003600D03*
X-12498900Y-25003600D03*
X-10498900Y-25003600D03*
X-8498900Y-25003600D03*
X-6498900Y-25003600D03*
X-4498900Y-25003600D03*
X-1498900Y-23503600D03*
X-1498900Y-21503600D03*
X-1498900Y-19503600D03*
X-1498900Y-17503600D03*
X-1498900Y-15503600D03*
X-1498900Y-13503600D03*
X-1498900Y-11503600D03*
X-1498900Y-9503600D03*
X-2498900Y-23503600D03*
X-2498900Y-21503600D03*
X-2498900Y-19503600D03*
X-2498900Y-17503600D03*
X-2498900Y-15503600D03*
X-2498900Y-13503600D03*
X-2498900Y-11503600D03*
X-2498900Y-9503600D03*
D12*
X-14400000Y-20050000D03*
X-14400000Y-18550000D03*
X-6500000Y-21450000D03*
X-6500000Y-19950000D03*
X-5200000Y-20950000D03*
X-5200000Y-19450000D03*
D13*
X-12850000Y-18150000D03*
X-12850000Y-18650000D03*
X-12850000Y-19150000D03*
X-12850000Y-19650000D03*
X-12850000Y-20150000D03*
X-12850000Y-20650000D03*
X-12850000Y-21150000D03*
X-12850000Y-21650000D03*
D14*
X-12200000Y-22300000D03*
X-11700000Y-22300000D03*
X-11200000Y-22300000D03*
X-10700000Y-22300000D03*
X-10200000Y-22300000D03*
X-9700000Y-22300000D03*
X-9200000Y-22300000D03*
X-8700000Y-22300000D03*
D13*
X-8050000Y-21650000D03*
X-8050000Y-21150000D03*
X-8050000Y-20650000D03*
X-8050000Y-20150000D03*
X-8050000Y-19650000D03*
X-8050000Y-19150000D03*
X-8050000Y-18650000D03*
X-8050000Y-18150000D03*
D14*
X-8700000Y-17500000D03*
X-9200000Y-17500000D03*
X-9700000Y-17500000D03*
X-10200000Y-17500000D03*
X-10700000Y-17500000D03*
X-11200000Y-17500000D03*
X-11700000Y-17500000D03*
X-12200000Y-17500000D03*
D15*
X-9587500Y-20762500D03*
X-9587500Y-19037500D03*
X-11312500Y-20762500D03*
X-11312500Y-19037500D03*
D16*
X-14400000Y-21900000D03*
X-14400000Y-23400000D03*
D17*
X-3600000Y-22200000D03*
X-5100000Y-22200000D03*
M02*
